# xmcd
#
# Track frame offsets: 
#        150
#        12617
#        28216
#        44119
#        57771
#        72835
#        87166
#        101201
#        118970
#        133137
#        148056
#        166275
#        182054
#        195867
#        210739
#        223457
#
# Disc length: 3190 seconds
#
# Revision: 0
# Processed by: cddbd v1.5.2PL0 Copyright (c) Steve Scherf et al.
# Submitted via: ExactAudioCopyFreeDBPlugin 1.0
#
DISCID=010c7410
DTITLE=Truck Stop - Der Wilde,Wilde Westen CD1
DYEAR=2017
DGENRE=Country
TTITLE0=Der wilde, wilde Westen
TTITLE1=Ich steh' auf Jeans und Country-Music
TTITLE2=Hannas Mann
TTITLE3=Hillybilly Country Lilly
TTITLE4=Mein Opa, das bin ich
TTITLE5=Der König von der Autobahn
TTITLE6=Das gibt's doch nur in Dallas
TTITLE7=Amerika
TTITLE8=Angeln entspannt
TTITLE9=Country New Wave
TTITLE10=Sie will zurück nach München
TTITLE11=Geiger in der Country Band
TTITLE12=Asphaltfiebe
TTITLE13=Black Jack
TTITLE14=Ich und mein Diesel
TTITLE15=Kopf oder Zahl (Geh'n wir nun zu dir - oder mir)
EXTD=
EXTT0=
EXTT1=
EXTT2=
EXTT3=
EXTT4=
EXTT5=
EXTT6=
EXTT7=
EXTT8=
EXTT9=
EXTT10=
EXTT11=
EXTT12=
EXTT13=
EXTT14=
EXTT15=
PLAYORDER=
